<?xml version="1.0" standalone="no"?>
<!DOCTYPE svg PUBLIC "-//W3C//DTD SVG 20010904//EN"
 "http://www.w3.org/TR/2001/REC-SVG-20010904/DTD/svg10.dtd">
<svg version="1.0" xmlns="http://www.w3.org/2000/svg"
 width="600.000000pt" height="600.000000pt" viewBox="0 0 600.000000 600.000000"
 preserveAspectRatio="xMidYMid meet">
<metadata>
Created by potrace 1.11, written by Peter Selinger 2001-2013
</metadata>
<g transform="translate(0.000000,600.000000) scale(0.100000,-0.100000)"
fill="#000000" stroke="none">
<path d="M2650 4450 l0 -150 160 0 160 0 0 -960 0 -960 -145 0 -145 0 0 -150
0 -150 315 0 315 0 0 137 0 137 68 -66 c167 -164 331 -231 562 -230 140 0 238
21 347 72 483 225 642 900 323 1370 -130 192 -312 313 -535 355 -246 47 -505
-24 -692 -191 -34 -30 -64 -54 -67 -54 -4 0 -5 154 -4 343 l3 342 168 3 167 2
0 150 0 150 -500 0 -500 0 0 -150z m1363 -905 c144 -30 259 -127 332 -280 98
-203 99 -435 3 -618 -49 -93 -159 -200 -250 -241 -307 -142 -652 24 -760 368
-28 87 -34 251 -14 346 48 227 214 380 461 425 93 18 147 18 228 0z"/>
<path d="M1722 3870 c-172 -24 -342 -110 -467 -239 -21 -23 -43 -41 -47 -41
-4 0 -8 59 -8 130 l0 130 -315 0 -315 0 0 -150 0 -150 145 0 145 0 0 -960 0
-960 -155 0 -155 0 0 -150 0 -150 495 0 495 0 0 150 0 150 -167 2 -168 3 -3
343 c-1 188 1 342 6 342 5 0 21 -14 37 -30 42 -44 166 -127 238 -160 93 -42
170 -60 287 -67 301 -17 578 127 745 386 302 469 137 1129 -336 1351 -128 59
-317 88 -457 70z m143 -305 c138 -18 305 -146 377 -290 54 -108 71 -193 66
-327 -11 -249 -129 -449 -315 -535 -158 -73 -389 -45 -558 68 -97 65 -151 132
-193 239 -69 176 -48 406 51 580 78 136 244 250 392 269 69 8 82 8 180 -4z"/>
<path d="M4960 2330 l0 -220 220 0 220 0 0 220 0 220 -220 0 -220 0 0 -220z"/>
</g>
</svg>
